<svg version="1.1" id="Camada_1" xmlns="http://www.w3.org/2000/svg" x="0" y="0" viewBox="0 0 1500 455.9" style="enable-background:new 0 0 1500 455.9" xml:space="preserve"><style>.st0{fill:#0f7c10}</style><path class="st0" d="m1464.1 368.3-87.4-118.6-87.3 118.6h-35.9l105-143.2-95.9-130.2h35.9l78.2 106.2 78.2-106.2h35.9L1395 225l105 143.3h-35.9zm-680.7-.1L678.2 225l95.9-130.2h-35.9L660 201 581.9 94.8H546L641.9 225 536.8 368.2h36l87.3-118.5 87.3 118.5h36z"/><path class="st0" d="M983.3 235.3c-5.4-4.6-11.4-8.5-17.9-11.4 20.3-10.8 32.9-31.8 32.9-54.8 0-17.5-6.4-74.4-88.9-74.4h-111v117.9h-37c-4.8 6.3-15.7 21.3-19.8 27.4h56.8v128.1h111.1c60.2 0 97.5-30.5 97.5-79.8-.1-21.4-8.3-39.7-23.7-53M829 123.3h80.4c21.7 0 58.2 5.4 58.2 43.4 0 28.8-21.2 45.9-58.2 45.9H829v-89.3zm80.3 216.4H829v-99.5h80.4c30.5 0 66.9 8.4 66.9 47.6-.1 45.2-42 51.9-67 51.9m242-251.2c-76.8 0-130.5 58.7-130.5 142.9s53.7 142.9 130.5 142.9c76.7 0 130.3-58.7 130.3-142.9S1228 88.5 1151.3 88.5m0 256.9c-58.5 0-99.5-46.9-99.5-114s41-114 99.5-114c58.4 0 99.2 46.9 99.2 114s-40.8 114-99.2 114M68 65.5l-.2.2C24.4 108.5-.1 167 0 227.9c-.1 49.9 16.3 98.4 46.6 138.1.3.4.8.6 1.2.4.4-.2.4-.7.3-1.2-17.4-53.7 71.4-184 117.3-238.6.1-.2.3-.4.3-.7 0-.3-.2-.6-.4-.7C88.1 48.4 67.5 66 67.8 65.7m320.1-.2.2.2c43.4 42.8 67.9 101.2 67.8 162.2.1 49.9-16.3 98.4-46.6 138.1-.3.4-.8.6-1.2.4-.4-.2-.4-.7-.3-1.2 17.4-53.7-71.4-184.1-117.2-238.7-.2-.2-.3-.4-.3-.6 0-.3.2-.6.4-.8C367.8 48.3 388.3 66 388 65.7M227.9 0c46 0 83.8 12.6 118.7 33.4.4.2.6.7.4 1.1-.2.4-.6.5-1.1.4-44.1-9.5-111.2 28.6-117.5 32.4-.1.1-.3.2-.5.2s-.4-.1-.5-.2c-16.8-9.7-78.8-42.2-117.9-32.2-.4.1-.9 0-1.1-.4-.2-.4 0-.9.4-1.1C143.7 12.6 182.1 0 227.9 0m0 182.8c.3 0 .6.2.7.4 68.3 51.8 185 180 149.4 216.3-41.5 36.4-94.8 56.5-150 56.4-55.2.1-108.5-20-150-56.4-35.7-36.3 81-164.5 149.1-216.3.2-.2.5-.4.8-.4"/></svg>